<svg width="47" height="47" viewBox="0 0 470 470" fill="none" xmlns="http://www.w3.org/2000/svg">
<rect width="470" height="470" fill="white"/>
<mask id="mask0_121_64" style="mask-type:luminance" maskUnits="userSpaceOnUse" x="117" y="74" width="276" height="230">
<path d="M117.143 74H393V303.523H117.143V74Z" fill="white"/>
</mask>
<g mask="url(#mask0_121_64)">
<path d="M338.464 75.9531L295.322 194.079C283.662 226.915 277.361 244.811 276.394 247.686C278.869 231.149 280.113 214.833 280.113 198.712V75.9531H232.258L184.554 195.623L173.498 225.423C174.571 225.885 175.663 226.266 176.807 226.586C180.454 227.829 184.412 228.29 188.512 228.53C192.638 228.654 196.879 228.228 201.147 227.456C206.8 226.284 212.488 224.482 218.033 221.952L222.594 210.332C230.652 188.016 236.251 169.996 239.374 156.245C238.141 173.715 237.546 190.448 237.546 206.471V302.563H303.166L393.586 75.9531H338.464ZM204.626 237.372C200.384 239.999 195.868 242.378 191.014 244.207C186.16 245.937 180.969 247.359 175.583 247.776C170.135 248.415 164.58 247.926 158.963 247.013C156.239 246.374 153.453 245.646 150.711 244.783C148.102 243.719 145.289 242.751 142.742 241.437C135.36 237.806 128.563 233.049 122.458 227.58L124.765 302.563H186.55L215.132 229.391C211.858 232.276 208.317 234.939 204.626 237.372ZM117.781 75.9531L118.296 92.127L131.012 89.4905C131.1 108.105 131.828 126.641 134.055 144.536L134.916 151.247C135.165 153.529 135.617 155.597 135.999 157.799L137.134 164.359L138.581 170.697C139.477 175.082 140.746 178.988 141.935 183.107L142.388 184.696L142.946 186.098L143.994 189.019C144.703 190.963 145.396 192.996 146.265 194.753C149.424 202.334 153.399 208.992 158.369 214.54C159.593 215.969 160.968 217.07 162.299 218.446C163.701 219.6 165.157 220.692 166.665 221.819C167.082 222.059 167.446 222.307 167.863 222.547C168.387 213.297 168.786 202.308 169.052 189.56L170.463 75.9531H117.781Z" fill="#0065F6"/>
</g>
<path d="M154.822 229.119C144.278 222.909 135.217 214.62 127.34 205.466C127.187 205.279 127.033 205.118 126.88 204.949C118.87 195.563 112.24 185.106 106.774 174.105C104.394 168.466 101.677 162.907 99.9194 157.054C98.9795 154.11 97.8455 151.273 97.0996 148.311L94.8725 139.371C94.4945 137.89 94.0858 136.418 93.81 134.91L93.0846 130.377L91.6135 121.312C90.9494 115.459 90.6225 109.606 90.1219 103.727C90.1117 103.504 90.1117 103.236 90.0811 102.995H101.288C101.35 108.839 101.217 114.692 101.411 120.518L102.126 129.271L102.484 133.634C102.616 135.097 102.933 136.533 103.168 137.961L104.598 146.633C105.099 149.533 105.978 152.326 106.652 155.199C107.888 160.989 110.115 166.432 111.954 172.062C115.979 181.983 120.955 191.61 127.156 200.559C127.81 201.496 128.433 202.433 129.138 203.352C136.238 213.032 144.626 222.097 154.822 229.119Z" fill="#FF0099"/>
<path d="M96.1216 86.0811L98.5837 89.1185C103.005 94.5733 108.296 99.2616 114.243 102.995H78C84.0475 99.2642 89.4034 94.5149 93.8305 88.9572L96.1216 86.0811Z" fill="#FF0099"/>
<g clip-path="url(#clip0_121_64)">
<path d="M91.0894 395.696C90.2498 395.696 89.578 395.473 89.0742 395.028C88.6264 394.527 88.3185 393.915 88.1506 393.191L78.1587 339.682C78.1587 339.515 78.1307 339.376 78.0747 339.264C78.0747 339.153 78.0747 339.069 78.0747 339.014C78.0747 338.513 78.2426 338.096 78.5785 337.762C78.9703 337.428 79.3902 337.261 79.838 337.261H87.227C88.6264 337.261 89.4101 337.817 89.578 338.93L96.5472 376.746L104.104 352.287C104.272 351.842 104.552 351.396 104.944 350.951C105.392 350.45 106.035 350.2 106.875 350.2H111.409C112.305 350.2 112.949 350.45 113.34 350.951C113.732 351.396 113.984 351.842 114.096 352.287L121.737 376.662L128.706 338.93C128.874 337.817 129.658 337.261 131.057 337.261H138.446C138.894 337.261 139.286 337.428 139.622 337.762C139.958 338.096 140.125 338.513 140.125 339.014C140.125 339.069 140.125 339.153 140.125 339.264C140.125 339.376 140.097 339.515 140.041 339.682L130.05 393.191C129.938 393.915 129.63 394.527 129.126 395.028C128.622 395.473 127.95 395.696 127.111 395.696H121.485C120.645 395.696 119.974 395.473 119.47 395.028C119.022 394.582 118.714 394.109 118.546 393.609L109.142 365.727L99.7379 393.609C99.514 394.109 99.1781 394.582 98.7303 395.028C98.2825 395.473 97.6107 395.696 96.7151 395.696H91.0894ZM159.851 396.53C156.94 396.53 154.309 395.974 151.958 394.861C149.607 393.692 147.732 392.162 146.332 390.269C144.989 388.322 144.317 386.151 144.317 383.758C144.317 379.863 145.884 376.774 149.019 374.492C152.21 372.155 156.408 370.596 161.614 369.817L173.117 368.148V366.395C173.117 364.057 172.53 362.249 171.354 360.969C170.179 359.689 168.163 359.049 165.309 359.049C163.293 359.049 161.642 359.466 160.355 360.301C159.123 361.08 158.2 362.137 157.584 363.473C157.136 364.196 156.492 364.558 155.653 364.558H149.019C148.403 364.558 147.928 364.391 147.592 364.057C147.312 363.723 147.172 363.278 147.172 362.722C147.228 361.831 147.592 360.746 148.264 359.466C148.935 358.186 149.999 356.962 151.454 355.793C152.91 354.569 154.785 353.539 157.08 352.704C159.375 351.869 162.146 351.452 165.393 351.452C168.919 351.452 171.886 351.897 174.293 352.788C176.756 353.622 178.715 354.763 180.171 356.21C181.626 357.657 182.69 359.355 183.361 361.302C184.033 363.25 184.369 365.309 184.369 367.48V393.692C184.369 394.249 184.173 394.722 183.781 395.111C183.389 395.501 182.913 395.696 182.354 395.696H175.552C174.936 395.696 174.433 395.501 174.041 395.111C173.705 394.722 173.537 394.249 173.537 393.692V390.436C172.81 391.494 171.83 392.496 170.598 393.442C169.367 394.332 167.856 395.083 166.064 395.696C164.329 396.252 162.258 396.53 159.851 396.53ZM162.706 388.6C164.665 388.6 166.428 388.182 167.996 387.348C169.619 386.513 170.879 385.233 171.774 383.508C172.726 381.727 173.201 379.501 173.201 376.829V375.076L164.805 376.412C161.502 376.913 159.039 377.72 157.416 378.833C155.792 379.946 154.981 381.309 154.981 382.923C154.981 384.148 155.345 385.205 156.072 386.096C156.856 386.93 157.836 387.57 159.011 388.016C160.187 388.405 161.418 388.6 162.706 388.6ZM201.886 411.556C201.438 411.556 201.046 411.389 200.71 411.056C200.374 410.722 200.206 410.332 200.206 409.887C200.206 409.664 200.206 409.441 200.206 409.219C200.262 409.052 200.374 408.83 200.542 408.551L207.091 393.108L190.97 355.292C190.746 354.736 190.634 354.346 190.634 354.123C190.69 353.622 190.886 353.205 191.222 352.871C191.558 352.482 191.978 352.287 192.481 352.287H199.283C199.954 352.287 200.458 352.454 200.794 352.788C201.13 353.122 201.382 353.483 201.55 353.873L212.717 381.17L224.22 353.873C224.388 353.428 224.64 353.066 224.976 352.788C225.312 352.454 225.816 352.287 226.488 352.287H233.205C233.653 352.287 234.044 352.454 234.38 352.788C234.772 353.122 234.968 353.511 234.968 353.956C234.968 354.29 234.856 354.736 234.632 355.292L210.87 409.97C210.646 410.416 210.366 410.777 210.03 411.056C209.694 411.389 209.191 411.556 208.519 411.556H201.886Z" fill="#2C2C2C"/>
<path d="M245.23 395.696C244.671 395.696 244.194 395.501 243.803 395.111C243.411 394.722 243.215 394.249 243.215 393.692V339.348C243.215 338.736 243.411 338.235 243.803 337.845C244.194 337.456 244.671 337.261 245.23 337.261H267.733C272.099 337.261 275.906 337.956 279.152 339.348C282.399 340.683 284.918 342.742 286.709 345.525C288.501 348.252 289.396 351.675 289.396 355.793C289.396 359.967 288.501 363.417 286.709 366.144C284.918 368.816 282.399 370.819 279.152 372.155C275.906 373.49 272.099 374.158 267.733 374.158H255.222V393.692C255.222 394.249 255.026 394.722 254.634 395.111C254.299 395.501 253.823 395.696 253.207 395.696H245.23ZM255.054 364.892H267.313C270.56 364.892 273.051 364.141 274.786 362.638C276.521 361.08 277.389 358.798 277.389 355.793C277.389 353.01 276.578 350.784 274.954 349.115C273.331 347.389 270.784 346.527 267.313 346.527H255.054V364.892ZM309.333 396.53C306.422 396.53 303.791 395.974 301.44 394.861C299.089 393.692 297.214 392.162 295.814 390.269C294.471 388.322 293.799 386.151 293.799 383.758C293.799 379.863 295.366 376.774 298.501 374.492C301.692 372.155 305.89 370.596 311.096 369.817L322.6 368.148V366.395C322.6 364.057 322.012 362.249 320.836 360.969C319.661 359.689 317.646 359.049 314.791 359.049C312.776 359.049 311.124 359.466 309.837 360.301C308.605 361.08 307.682 362.137 307.066 363.473C306.618 364.196 305.974 364.558 305.135 364.558H298.501C297.885 364.558 297.41 364.391 297.074 364.057C296.794 363.723 296.654 363.278 296.654 362.722C296.71 361.831 297.074 360.746 297.746 359.466C298.417 358.186 299.481 356.962 300.936 355.793C302.392 354.569 304.267 353.539 306.562 352.704C308.857 351.869 311.628 351.452 314.875 351.452C318.401 351.452 321.368 351.897 323.775 352.788C326.238 353.622 328.197 354.763 329.653 356.21C331.108 357.657 332.172 359.355 332.843 361.302C333.515 363.25 333.851 365.309 333.851 367.48V393.692C333.851 394.249 333.655 394.722 333.263 395.111C332.872 395.501 332.395 395.696 331.836 395.696H325.035C324.419 395.696 323.915 395.501 323.523 395.111C323.187 394.722 323.019 394.249 323.019 393.692V390.436C322.292 391.494 321.312 392.496 320.081 393.442C318.849 394.332 317.338 395.083 315.546 395.696C313.811 396.252 311.74 396.53 309.333 396.53ZM312.188 388.6C314.147 388.6 315.91 388.182 317.478 387.348C319.101 386.513 320.361 385.233 321.256 383.508C322.208 381.727 322.683 379.501 322.683 376.829V375.076L314.287 376.412C310.984 376.913 308.521 377.72 306.898 378.833C305.274 379.946 304.463 381.309 304.463 382.923C304.463 384.148 304.827 385.205 305.554 386.096C306.338 386.93 307.318 387.57 308.493 388.016C309.669 388.405 310.9 388.6 312.188 388.6ZM351.368 411.556C350.92 411.556 350.528 411.389 350.192 411.056C349.856 410.722 349.688 410.332 349.688 409.887C349.688 409.664 349.688 409.441 349.688 409.219C349.744 409.052 349.856 408.83 350.024 408.551L356.574 393.108L340.452 355.292C340.228 354.736 340.116 354.346 340.116 354.123C340.172 353.622 340.368 353.205 340.704 352.871C341.04 352.482 341.46 352.287 341.963 352.287H348.765C349.436 352.287 349.94 352.454 350.276 352.788C350.612 353.122 350.864 353.483 351.032 353.873L362.199 381.17L373.703 353.873C373.87 353.428 374.122 353.066 374.458 352.788C374.794 352.454 375.298 352.287 375.97 352.287H382.687C383.135 352.287 383.527 352.454 383.862 352.788C384.254 353.122 384.45 353.511 384.45 353.956C384.45 354.29 384.338 354.736 384.114 355.292L360.352 409.97C360.128 410.416 359.848 410.777 359.512 411.056C359.176 411.389 358.673 411.556 358.001 411.556H351.368Z" fill="#FF0099"/>
</g>
<defs>
<clipPath id="clip0_121_64">
<rect width="307" height="75" fill="white" transform="translate(78 337)"/>
</clipPath>
</defs>
</svg>
